<svg width="200" height="200" viewBox="0 0 200 200" fill="none" xmlns="http://www.w3.org/2000/svg">
<circle cx="100" cy="100" r="100" fill="#F5F2F2"/>
<circle cx="100" cy="65" r="33.5" stroke="#B0AFAF" stroke-width="13"/>
<path d="M48 147C48 124.909 65.9086 107 88 107H112C134.091 107 152 124.909 152 147V166C152 171.523 147.523 176 142 176H58C52.4772 176 48 171.523 48 166V147Z" fill="#B0AFAF"/>
<path d="M62 154C62 133.013 79.0132 116 100 116V116C120.987 116 138 133.013 138 154V157C138 162.523 133.523 167 128 167H72C66.4772 167 62 162.523 62 157V154Z" fill="#F5F2F2"/>
</svg>
